<svg xmlns="http://www.w3.org/2000/svg" viewBox="0 0 512 512" width="512" height="512">
  <!-- Background -->
  <rect width="512" height="512" rx="96" fill="#0f1117"/>

  <!-- Grid of widget squares -->
  <!-- Top-left: Sports (blue) -->
  <rect x="64" y="64" width="172" height="172" rx="20" fill="#1e2a3a"/>
  <rect x="64" y="64" width="172" height="172" rx="20" fill="none" stroke="#3b82f6" stroke-width="2" opacity="0.5"/>
  <rect x="88" y="88" width="56" height="56" rx="10" fill="#3b82f6" opacity="0.8"/>
  <rect x="156" y="88" width="56" height="56" rx="10" fill="#10b981" opacity="0.6"/>
  <rect x="88" y="156" width="56" height="56" rx="10" fill="#f59e0b" opacity="0.6"/>
  <rect x="156" y="156" width="56" height="56" rx="10" fill="#ef4444" opacity="0.6"/>

  <!-- Top-right: WoW (purple) -->
  <rect x="276" y="64" width="172" height="172" rx="20" fill="#1e1a2e"/>
  <rect x="276" y="64" width="172" height="172" rx="20" fill="none" stroke="#a855f7" stroke-width="2" opacity="0.5"/>
  <!-- Checklist dots -->
  <circle cx="310" cy="108" r="8" fill="#a855f7" opacity="0.9"/>
  <rect x="328" y="103" width="88" height="10" rx="5" fill="#a855f7" opacity="0.4"/>
  <circle cx="310" cy="138" r="8" fill="#a855f7" opacity="0.9"/>
  <rect x="328" y="133" width="70" height="10" rx="5" fill="#a855f7" opacity="0.4"/>
  <circle cx="310" cy="168" r="8" fill="#3b3550" opacity="0.9"/>
  <rect x="328" y="163" width="80" height="10" rx="5" fill="#3b3550" opacity="0.9"/>
  <circle cx="310" cy="198" r="8" fill="#3b3550" opacity="0.9"/>
  <rect x="328" y="193" width="60" height="10" rx="5" fill="#3b3550" opacity="0.9"/>

  <!-- Bottom-left: Running (green) -->
  <rect x="64" y="276" width="172" height="172" rx="20" fill="#0e1f1a"/>
  <rect x="64" y="276" width="172" height="172" rx="20" fill="none" stroke="#10b981" stroke-width="2" opacity="0.5"/>
  <!-- Running chart bars -->
  <rect x="92" y="382" width="20" height="44" rx="4" fill="#10b981" opacity="0.5"/>
  <rect x="120" y="360" width="20" height="66" rx="4" fill="#10b981" opacity="0.7"/>
  <rect x="148" y="340" width="20" height="86" rx="4" fill="#10b981" opacity="0.9"/>
  <rect x="176" y="352" width="20" height="74" rx="4" fill="#10b981" opacity="0.7"/>
  <rect x="204" y="330" width="20" height="96" rx="4" fill="#10b981"/>

  <!-- Bottom-right: Calendar (purple/blue) -->
  <rect x="276" y="276" width="172" height="172" rx="20" fill="#1a1e2e"/>
  <rect x="276" y="276" width="172" height="172" rx="20" fill="none" stroke="#6366f1" stroke-width="2" opacity="0.5"/>
  <!-- Calendar grid -->
  <rect x="300" y="296" width="124" height="16" rx="4" fill="#6366f1" opacity="0.7"/>
  <circle cx="316" cy="334" r="7" fill="#6366f1" opacity="0.8"/>
  <circle cx="346" cy="334" r="7" fill="#6366f1" opacity="0.4"/>
  <circle cx="376" cy="334" r="7" fill="#6366f1" opacity="0.4"/>
  <circle cx="406" cy="334" r="7" fill="#6366f1" opacity="0.4"/>
  <circle cx="316" cy="364" r="7" fill="#6366f1" opacity="0.4"/>
  <circle cx="346" cy="364" r="7" fill="#6366f1" opacity="0.9"/>
  <circle cx="376" cy="364" r="7" fill="#6366f1" opacity="0.4"/>
  <circle cx="406" cy="364" r="7" fill="#6366f1" opacity="0.4"/>
  <circle cx="316" cy="394" r="7" fill="#6366f1" opacity="0.4"/>
  <circle cx="346" cy="394" r="7" fill="#6366f1" opacity="0.4"/>
  <circle cx="376" cy="394" r="7" fill="#6366f1" opacity="0.9"/>
  <circle cx="406" cy="394" r="7" fill="#6366f1" opacity="0.4"/>

  <!-- Center accent line (gap between widgets) -->
  <line x1="256" y1="64" x2="256" y2="448" stroke="#ffffff" stroke-width="1" opacity="0.04"/>
  <line x1="64" y1="256" x2="448" y2="256" stroke="#ffffff" stroke-width="1" opacity="0.04"/>
</svg>
